<svg version="1.1" viewBox="0.0 0.0 1000.0 500.0" fill="none" stroke="none" stroke-linecap="square" stroke-miterlimit="10" xmlns:xlink="http://www.w3.org/1999/xlink" xmlns="http://www.w3.org/2000/svg"><clipPath id="p.0"><path d="m0 0l1000.0 0l0 500.0l-1000.0 0l0 -500.0z" clip-rule="nonzero"/></clipPath><g clip-path="url(#p.0)"><path fill="#000000" fill-opacity="0.0" d="m0 0l1000.0 0l0 500.0l-1000.0 0z" fill-rule="evenodd"/><path fill="#000000" d="m415.26306 308.7455l0 0c0 -61.36885 50.89148 -111.11812 113.66931 -111.11812l0 0c30.146973 0 59.059204 11.7070465 80.37634 32.54573c21.317078 20.8387 33.29297 49.10202 33.29297 78.57239l0 0c0 61.368835 -50.89148 111.1181 -113.66931 111.1181l0 0c-62.777832 0 -113.66931 -49.749268 -113.66931 -111.1181z" fill-rule="evenodd"/><path fill="#000000" d="m173.36578 260.5384l0 0c0 -95.732254 78.17743 -173.3386 174.61417 -173.3386l0 0c46.310547 0 90.724365 18.262405 123.470856 50.76969c32.74652 32.507294 51.14331 76.59665 51.14331 122.56889l0 0c0 95.73227 -78.17743 173.3386 -174.61417 173.3386l0 0c-96.43674 0 -174.61417 -77.60632 -174.61417 -173.3386z" fill-rule="evenodd"/><path fill="#000000" d="m67.997375 384.1871l0 0c0 -51.114624 41.373116 -92.55118 92.409454 -92.55118l0 0c24.5085 0 48.013214 9.750885 65.34334 27.107605c17.33014 17.35672 27.066101 40.89746 27.066101 65.44357l0 0c0 51.114594 -41.373108 92.55118 -92.40944 92.55118l0 0c-51.03634 0 -92.409454 -41.436584 -92.409454 -92.55118z" fill-rule="evenodd"/><path fill="#000000" d="m163.6284 372.17807l605.4803 0l0 104.59842l-605.4803 0z" fill-rule="evenodd"/><path fill="#000000" d="m361.5619 191.74147l0 0c0 -93.070854 79.6369 -168.51968 177.87402 -168.51968l0 0c47.17511 0 92.41809 17.754702 125.77594 49.35827c33.35785 31.603577 52.098083 74.46722 52.098083 119.161415l0 0c0 93.07085 -79.6369 168.5197 -177.87402 168.5197l0 0c-98.23712 0 -177.87402 -75.44885 -177.87402 -168.5197z" fill-rule="evenodd"/><path fill="#000000" d="m604.6021 308.1574l0 0c0 -93.07086 73.29138 -168.5197 163.7008 -168.5197l0 0c43.416138 0 85.05408 17.754715 115.75397 49.358276c30.69983 31.603577 47.94684 74.46721 47.94684 119.16142l0 0c0 93.07083 -73.29132 168.51968 -163.7008 168.51968l0 0c-90.409424 0 -163.7008 -75.44885 -163.7008 -168.51968z" fill-rule="evenodd"/></g></svg>