<?xml version="1.0" standalone="no"?>
<svg xmlns:xlink="http://www.w3.org/1999/xlink" id="wave" style="transform:rotate(180deg); transition: 0.3s" viewBox="0 0 1440 2390" version="1.1" xmlns="http://www.w3.org/2000/svg"><defs><linearGradient id="sw-gradient-0" x1="0" x2="0" y1="1" y2="0"><stop stop-color="rgba(5, 23, 42, 1)" offset="0%"/><stop stop-color="rgba(5, 23, 42, 1)" offset="100%"/></linearGradient></defs><path style="transform:translate(0, 0px); opacity:1" fill="url(#sw-gradient-0)" d="M0,294L60,310.3C120,327,240,359,360,318.5C480,278,600,163,720,130.7C840,98,960,147,1080,171.5C1200,196,1320,196,1440,196C1560,196,1680,196,1800,187.8C1920,180,2040,163,2160,179.7C2280,196,2400,245,2520,228.7C2640,212,2760,131,2880,155.2C3000,180,3120,310,3240,359.3C3360,408,3480,376,3600,359.3C3720,343,3840,343,3960,351.2C4080,359,4200,376,4320,367.5C4440,359,4560,327,4680,294C4800,261,4920,229,5040,220.5C5160,212,5280,229,5400,212.3C5520,196,5640,147,5760,155.2C5880,163,6000,229,6120,220.5C6240,212,6360,131,6480,114.3C6600,98,6720,147,6840,171.5C6960,196,7080,196,7200,196C7320,196,7440,196,7560,228.7C7680,261,7800,327,7920,302.2C8040,278,8160,163,8280,106.2C8400,49,8520,49,8580,49L8640,49L8640,490L8580,490C8520,490,8400,490,8280,490C8160,490,8040,490,7920,490C7800,490,7680,490,7560,490C7440,490,7320,490,7200,490C7080,490,6960,490,6840,490C6720,490,6600,490,6480,490C6360,490,6240,490,6120,490C6000,490,5880,490,5760,490C5640,490,5520,490,5400,490C5280,490,5160,490,5040,490C4920,490,4800,490,4680,490C4560,490,4440,490,4320,490C4200,490,4080,490,3960,490C3840,490,3720,490,3600,490C3480,490,3360,490,3240,490C3120,490,3000,490,2880,490C2760,490,2640,490,2520,490C2400,490,2280,490,2160,490C2040,490,1920,490,1800,490C1680,490,1560,490,1440,490C1320,490,1200,490,1080,490C960,490,840,490,720,490C600,490,480,490,360,490C240,490,120,490,60,490L0,490Z"/></svg>