<svg xmlns:xlink="http://www.w3.org/1999/xlink" id="wave" style="transform: rotate(180deg); transition: 0.3s" viewBox="0 0 1440 2390" version="1.1" xmlns="http://www.w3.org/2000/svg">
  
  <path style="opacity:1" fill="rgba(5,23,42,1)" d="M0,392L40,367.5C80,343,160,294,240,253.2C320,212,400,180,480,179.7C560,180,640,212,720,245C800,278,880,310,960,334.8C1040,359,1120,376,1200,351.2C1280,327,1360,261,1440,196C1520,131,1600,65,1680,73.5C1760,82,1840,163,1920,220.5C2000,278,2080,310,2160,334.8C2240,359,2320,376,2400,334.8C2480,294,2560,196,2640,130.7C2720,65,2800,33,2880,81.7C2960,131,3040,261,3120,310.3C3200,359,3280,327,3360,334.8C3440,343,3520,392,3600,359.3C3680,327,3760,212,3840,187.8C3920,163,4000,229,4080,228.7C4160,229,4240,163,4320,163.3C4400,163,4480,229,4560,236.8C4640,245,4720,196,4800,212.3C4880,229,4960,310,5040,310.3C5120,310,5200,229,5280,228.7C5360,229,5440,310,5520,318.5C5600,327,5680,261,5720,228.7L5760,196L5760,490L5720,490C5680,490,5600,490,5520,490C5440,490,5360,490,5280,490C5200,490,5120,490,5040,490C4960,490,4880,490,4800,490C4720,490,4640,490,4560,490C4480,490,4400,490,4320,490C4240,490,4160,490,4080,490C4000,490,3920,490,3840,490C3760,490,3680,490,3600,490C3520,490,3440,490,3360,490C3280,490,3200,490,3120,490C3040,490,2960,490,2880,490C2800,490,2720,490,2640,490C2560,490,2480,490,2400,490C2320,490,2240,490,2160,490C2080,490,2000,490,1920,490C1840,490,1760,490,1680,490C1600,490,1520,490,1440,490C1360,490,1280,490,1200,490C1120,490,1040,490,960,490C880,490,800,490,720,490C640,490,560,490,480,490C400,490,320,490,240,490C160,490,80,490,40,490L0,490Z"/>
  <rect width="100%" height="100%" x="0" y="490" fill="rgba(5,23,42,1)"/>
</svg>
