<?xml version="1.0" standalone="no"?>
<svg xmlns:xlink="http://www.w3.org/1999/xlink" id="wave" style="transform:rotate(180deg); transition: 0.3s" viewBox="0 0 1440 490" version="1.1" xmlns="http://www.w3.org/2000/svg"><defs><linearGradient id="sw-gradient-0" x1="0" x2="0" y1="1" y2="0"><stop stop-color="rgba(5, 23, 42, 1)" offset="0%"/><stop stop-color="rgba(5, 23, 42, 1)" offset="100%"/></linearGradient></defs><path style="transform:translate(0, 0px); opacity:1" fill="url(#sw-gradient-0)" d="M0,98L60,89.8C120,82,240,65,360,57.2C480,49,600,49,720,98C840,147,960,245,1080,302.2C1200,359,1320,376,1440,375.7C1560,376,1680,359,1800,302.2C1920,245,2040,147,2160,163.3C2280,180,2400,310,2520,343C2640,376,2760,310,2880,236.8C3000,163,3120,82,3240,49C3360,16,3480,33,3600,49C3720,65,3840,82,3960,147C4080,212,4200,327,4320,351.2C4440,376,4560,310,4680,285.8C4800,261,4920,278,5040,253.2C5160,229,5280,163,5400,179.7C5520,196,5640,294,5760,351.2C5880,408,6000,425,6120,375.7C6240,327,6360,212,6480,147C6600,82,6720,65,6840,65.3C6960,65,7080,82,7200,89.8C7320,98,7440,98,7560,81.7C7680,65,7800,33,7920,57.2C8040,82,8160,163,8280,212.3C8400,261,8520,278,8580,285.8L8640,294L8640,490L8580,490C8520,490,8400,490,8280,490C8160,490,8040,490,7920,490C7800,490,7680,490,7560,490C7440,490,7320,490,7200,490C7080,490,6960,490,6840,490C6720,490,6600,490,6480,490C6360,490,6240,490,6120,490C6000,490,5880,490,5760,490C5640,490,5520,490,5400,490C5280,490,5160,490,5040,490C4920,490,4800,490,4680,490C4560,490,4440,490,4320,490C4200,490,4080,490,3960,490C3840,490,3720,490,3600,490C3480,490,3360,490,3240,490C3120,490,3000,490,2880,490C2760,490,2640,490,2520,490C2400,490,2280,490,2160,490C2040,490,1920,490,1800,490C1680,490,1560,490,1440,490C1320,490,1200,490,1080,490C960,490,840,490,720,490C600,490,480,490,360,490C240,490,120,490,60,490L0,490Z"/></svg>